/* XPM */
static char *yasw[] = {
/* columns rows colors chars-per-pixel */
"32 32 32 1 ",
"  c #9A5B16EC16EC",
". c #2D72748F2D72",
"X c #2EF23BC41DA9",
"o c #800115051505",
"O c #935002B902B9",
"+ c #C744C542C748",
"@ c #ADE901EA01EA",
"# c #BE2A048B048B",
"$ c #CBD305E405E4",
"% c #FC7C04610461",
"& c #EEB232C032C0",
"* c #B0B452DE52DE",
"= c #E7F546424642",
"- c #DA1E6EB56EB5",
"; c #000093850000",
": c #0016B91A0016",
"> c #000AD82C000A",
", c #000BFC66000B",
"< c #BC1BA2AFA2AF",
"1 c #BEE7BE4EBE4E",
"2 c #BFE7BF7BBFE7",
"3 c #C2BABFCEC2BA",
"4 c #CD1894C994C9",
"5 c #C365B122B122",
"6 c #BDC5C1FFC1FF",
"7 c #42764250431B",
"8 c #132065651320",
"9 c #466C3A7A3B75",
"0 c #A7CDAA1BAA1B",
"q c #3A4938CB3A7F",
"w c None",
"e c #D31CCD67D33F",
/* pixels */
";;:>>>,>>>,>>,>>,>>89wwwwwwwwwww",
">,>:>>,,,,,,,,,,,,,XwXqwwwwwwwww",
">,,,>::>,,,,,,,,,,>qww99wwwwwwww",
">,,,,,>>:>,,,,,,,,,8wwww7qwwwwww",
">,,,,,,,,::>,,,,,,>qwwwwq99wwwww",
">,,,,,,,,,,>:>>,,,,8wwwwwwq9wwww",
">,,,,,,,,,,,,>::>,>XwwwwwwwqXwww",
">,,,,,,,,,,,,,,,>::qwwwwwqo$#www",
">,,,,,,,,,,,,,,,,,>.9qww $%%@www",
",,,,,,,,,,,,,,,,,,>8qqo$%%%%@www",
">,,,,,,,,,,,,,,,,,,qwwO&&&&%#www",
">,,,,,,,,,,,,,,,,,,9wwO-555-#www",
">,,,,,,,,,,,,,,,,,>q7e456664*e7w",
">,,,,,,,,,,,,,,,,,,.+6664-45112q",
">,,,,,,,,,,,,,,,,,,X<65-&-&-662w",
",,,,,,,,,,,,,,,,,,,8+64=455=56<q",
">,,,,,,,,,,,,,,,,,>X264=566=46+q",
">,,,,,,,,,,,,,,,,,,8266=-5-&56<q",
">,,,,,,,,,,,,,,,,,>X6664=&=4662w",
">,,,,,,,,,,,,,,,,,,903<4444456+w",
">,,,,,,,,,,,,,,,,,,9wq %&%%%#qww",
",,,,,,,,,,,,,,,,,,,8wwo%%%%%#www",
">,,,,,,,,,,,,,,,,,>qq9e$%%%%$qww",
">,,,,,,,,,,,,,,,,,:X9qqqo#%%#www",
">,,,,,,,,,,,,,,,::>8wwwwww $#www",
">,,,,,,,,,,,,>::>,,8wwwwwww9owww",
">,,,,,,,,,,>::>,,,>qwwwwwwq7wwww",
",,,,,,,,,::>,,,,,,,Xwwwww99qwwww",
">,,,,,>>:>,,,,,,,,,qwwwq9wwwwwww",
">,,,>::>,,,,,,,,,,,Xwq99qwwwwwww",
">,>:>>,,,,,,,,,,,,>qq7qwwwwwwwww",
";;:>>,>,>>,>,>,>,,>.7wwwwwwwwwww"
};
