<?xml version="1.0" encoding="UTF-8" standalone="no"?>
<!-- Created with Inkscape (http://www.inkscape.org/) -->
<svg id="svg249" xmlns:rdf="http://www.w3.org/1999/02/22-rdf-syntax-ns#" xmlns="http://www.w3.org/2000/svg" height="48px" width="48px" xmlns:cc="http://creativecommons.org/ns#" xmlns:xlink="http://www.w3.org/1999/xlink" xmlns:dc="http://purl.org/dc/elements/1.1/">
 <defs id="defs3">
  <radialGradient id="radialGradient5031" xlink:href="#linearGradient5060" gradientUnits="userSpaceOnUse" cy="486.65" cx="605.71" gradientTransform="matrix(-2.7744 0 0 1.9697 112.76 -872.89)" r="117.14"/>
  <linearGradient id="linearGradient5060">
   <stop id="stop5062" offset="0"/>
   <stop id="stop5064" stop-opacity="0" offset="1"/>
  </linearGradient>
  <radialGradient id="radialGradient5029" xlink:href="#linearGradient5060" gradientUnits="userSpaceOnUse" cy="486.65" cx="605.71" gradientTransform="matrix(2.7744 0 0 1.9697 -1891.6 -872.89)" r="117.14"/>
  <linearGradient id="linearGradient5027" y2="609.51" gradientUnits="userSpaceOnUse" x2="302.86" gradientTransform="matrix(2.7744 0 0 1.9697 -1892.2 -872.89)" y1="366.65" x1="302.86">
   <stop id="stop5050" stop-opacity="0" offset="0"/>
   <stop id="stop5056" offset=".5"/>
   <stop id="stop5052" stop-opacity="0" offset="1"/>
  </linearGradient>
  <radialGradient id="radialGradient278" gradientUnits="userSpaceOnUse" cy="125" cx="55" r="14.375">
   <stop id="stop12513" stop-color="#fff" offset="0"/>
   <stop id="stop12517" stop-color="#fff520" stop-opacity=".89109" offset=".5"/>
   <stop id="stop12514" stop-color="#fff300" stop-opacity="0" offset="1"/>
  </radialGradient>
  <radialGradient id="radialGradient15656" gradientUnits="userSpaceOnUse" cx="8.8244" cy="3.7561" r="37.752" gradientTransform="matrix(.96827 0 0 1.0328 3.3536 .64645)">
   <stop id="stop270" stop-color="#a3a3a3" offset="0"/>
   <stop id="stop271" stop-color="#4c4c4c" offset="1"/>
  </radialGradient>
  <radialGradient id="radialGradient15658" gradientUnits="userSpaceOnUse" cx="33.967" cy="35.737" r="86.708" gradientTransform="scale(.96049 1.0411)">
   <stop id="stop260" stop-color="#fafafa" offset="0"/>
   <stop id="stop261" stop-color="#bbb" offset="1"/>
  </radialGradient>
  <radialGradient id="radialGradient15668" gradientUnits="userSpaceOnUse" cx="8.1436" cy="7.2679" r="38.159" gradientTransform="matrix(.96827 0 0 1.0328 3.3536 .64645)">
   <stop id="stop15664" stop-color="#fff" offset="0"/>
   <stop id="stop15666" stop-color="#f8f8f8" offset="1"/>
  </radialGradient>
  <radialGradient id="radialGradient2283" gradientUnits="userSpaceOnUse" cy="114.57" cx="20.892" gradientTransform="matrix(.22970 0 0 .22970 4.6135 3.9798)" r="5.256">
   <stop id="stop15566" stop-color="#F0F0F0" offset="0"/>
   <stop id="stop15568" stop-color="#9a9a9a" offset="1"/>
  </radialGradient>
  <radialGradient id="radialGradient2285" gradientUnits="userSpaceOnUse" cy="64.568" cx="20.892" gradientTransform="matrix(.22970 0 0 .22970 4.6135 3.9798)" r="5.257">
   <stop id="stop15573" stop-color="#F0F0F0" offset="0"/>
   <stop id="stop15575" stop-color="#9a9a9a" offset="1"/>
  </radialGradient>
 </defs>
 <metadata id="metadata4">
  <rdf:RDF>
   <cc:Work rdf:about="">
    <dc:format>image/svg+xml</dc:format>
    <dc:type rdf:resource="http://purl.org/dc/dcmitype/StillImage"/>
    <dc:title>New Document</dc:title>
    <dc:creator>
     <cc:Agent>
      <dc:title>Jakub Steiner</dc:title>
     </cc:Agent>
    </dc:creator>
    <dc:source>http://jimmac.musichall.cz</dc:source>
    <cc:license rdf:resource="http://creativecommons.org/licenses/publicdomain/"/>
   </cc:Work>
   <cc:License rdf:about="http://creativecommons.org/licenses/publicdomain/">
    <cc:permits rdf:resource="http://creativecommons.org/ns#Reproduction"/>
    <cc:permits rdf:resource="http://creativecommons.org/ns#Distribution"/>
    <cc:permits rdf:resource="http://creativecommons.org/ns#DerivativeWorks"/>
   </cc:License>
  </rdf:RDF>
 </metadata>
 <g id="layer6">
  <g id="g5022" transform="matrix(.021652 0 0 .014857 43.008 42.685)">
   <rect id="rect4173" opacity=".40206" style="color:black" height="478.36" width="1339.6" y="-150.7" x="-1559.3" fill="url(#linearGradient5027)"/>
   <path id="path5058" opacity=".40206" style="color:black" d="m-219.62-150.68v478.33c142.88 0.9 345.4-107.17 345.4-239.2 0-132.02-159.44-239.13-345.4-239.13z" fill="url(#radialGradient5029)"/>
   <path id="path5018" opacity=".40206" style="color:black" d="m-1559.3-150.68v478.33c-142.8 0.9-345.4-107.17-345.4-239.2 0-132.02 159.5-239.13 345.4-239.13z" fill="url(#radialGradient5031)"/>
  </g>
 </g>
 <g id="layer1">
  <rect id="rect15391" stroke-linejoin="round" height="40.92" stroke="url(#radialGradient15656)" stroke-linecap="round" fill="url(#radialGradient15658)" style="color:#000000" ry="1.149" width="34.875" y="3.6464" x="6.6036" display="block"/>
  <rect id="rect15660" stroke-linejoin="round" height="38.946" stroke="url(#radialGradient15668)" stroke-linecap="round" fill="none" style="color:#000000" rx=".14905" ry=".14905" width="32.776" y="4.5839" x="7.6661" display="block"/>
  <g id="g2270" transform="translate(.64645 -.037989)">
   <g id="g1440" transform="matrix(.22970 0 0 .22970 4.9671 4.245)" stroke="#000" fill="#fff">
    <path id="path1448" d="m23.428 113.07c0 1.97-1.6 3.57-3.573 3.57-1.974 0-3.573-1.6-3.573-3.57s1.6-3.57 3.573-3.57 3.573 1.6 3.573 3.57z"/>
    <path id="path1456" d="m23.428 63.07c0 1.973-1.6 3.573-3.573 3.573-1.974 0-3.573-1.6-3.573-3.573 0-1.974 1.6-3.573 3.573-3.573s3.573 1.6 3.573 3.573z"/>
   </g>
   <path id="path15570" fill="url(#radialGradient2283)" d="m9.995 29.952c0 0.454-0.3675 0.821-0.8207 0.821-0.4535 0-0.8207-0.368-0.8207-0.821s0.3675-0.82 0.8207-0.82 0.8207 0.367 0.8207 0.82z"/>
   <path id="path15577" fill="url(#radialGradient2285)" d="m9.995 18.467c0 0.453-0.3675 0.821-0.8207 0.821-0.4535 0-0.8207-0.368-0.8207-0.821s0.3675-0.821 0.8207-0.821 0.8207 0.368 0.8207 0.821z"/>
  </g>
  <path id="path15672" d="m11.506 5.4943v37.907" stroke-opacity=".017544" stroke="#000" stroke-width=".98855" fill="none"/>
  <path id="path15674" d="m12.5 5.0205v38.018" stroke-opacity=".20468" stroke="#fff" fill="none"/>
 </g>
 <g id="layer4">
  <path id="path12511" style="color:#000000" d="m69.375 125a14.375 14.375 0 1 1 -28.75 0 14.375 14.375 0 1 1 28.75 0z" transform="matrix(.78329 0 0 .78329 -6.3409 -86.652)" display="block" fill="url(#radialGradient278)"/>
 </g>
</svg>
